<svg width="28" height="14" viewBox="0 0 28 14" fill="none" xmlns="http://www.w3.org/2000/svg">
<path d="M16.779 0.266386C16.9057 0.266386 17.034 0.299902 17.1503 0.370443L27.093 6.38611C27.3083 6.51632 27.4397 6.74952 27.4397 7.00098C27.4397 7.25244 27.3083 7.48565 27.093 7.61585L17.1503 13.6315C16.8109 13.8372 16.3689 13.7282 16.1634 13.3887C15.9578 13.0491 16.0666 12.6073 16.4063 12.4018L25.3326 7.00098L16.4063 1.60018C16.0666 1.3947 15.9578 0.952848 16.1634 0.613302C16.2984 0.389921 16.5358 0.266386 16.779 0.266386Z" fill="#595959"/>
<path d="M7.75195 6.29311C7.93884 6.29311 8.12572 6.36856 8.25855 6.50508C8.39156 6.63809 8.4707 6.82498 8.4707 7.01186C8.4707 7.20225 8.39156 7.38562 8.25855 7.52214C7.98902 7.78799 7.50752 7.78799 7.2415 7.52214C7.10866 7.38562 7.03321 7.20225 7.03321 7.01186C7.03321 6.82129 7.10866 6.63809 7.2415 6.50508C7.37451 6.36856 7.56139 6.29311 7.75195 6.29311Z" fill="#595959"/>
<path d="M5.5957 6.29311C5.78259 6.29311 5.96947 6.36857 6.1023 6.50509C6.23531 6.6381 6.31445 6.8213 6.31445 7.01186C6.31445 7.20226 6.23531 7.38563 6.1023 7.51846C5.83646 7.78799 5.35478 7.78799 5.08524 7.51846C4.95241 7.38563 4.87695 7.20226 4.87695 7.01186C4.87695 6.8213 4.95241 6.6381 5.08524 6.50509C5.21826 6.36857 5.40514 6.29311 5.5957 6.29311Z" fill="#595959"/>
<path d="M3.43945 6.29312C3.62634 6.29312 3.81322 6.37209 3.94605 6.5051C4.07906 6.63811 4.1582 6.82131 4.1582 7.01187C4.1582 7.20226 4.07906 7.38564 3.94605 7.52216C3.68021 7.788 3.19852 7.788 2.92899 7.52216C2.79616 7.38564 2.7207 7.20226 2.7207 7.01187C2.7207 6.82131 2.79616 6.63811 2.92899 6.5051C3.06569 6.37209 3.24889 6.29312 3.43945 6.29312Z" fill="#595959"/>
<path d="M1.2832 6.29312C1.47009 6.29312 1.65697 6.36858 1.7898 6.5051C1.92281 6.63811 2.00195 6.82131 2.00195 7.01187C2.00195 7.20226 1.92281 7.38564 1.7898 7.52216C1.52027 7.788 1.04227 7.788 0.772743 7.52216C0.639908 7.38564 0.564453 7.20226 0.564453 7.01187C0.564453 6.82131 0.639908 6.63811 0.772743 6.5051C0.909439 6.36858 1.09264 6.29312 1.2832 6.29312Z" fill="#595959"/>
<path d="M10.0483 6.28223L25.5015 6.28223C25.8984 6.28223 26.2202 6.60405 26.2202 7.00098C26.2202 7.3979 25.8984 7.71973 25.5015 7.71973L10.0483 7.71973C9.65141 7.71973 9.32959 7.3979 9.32959 7.00098C9.32959 6.60405 9.65141 6.28223 10.0483 6.28223Z" fill="#595959"/>
</svg>
