<svg width="28" height="31" viewBox="0 0 28 31" fill="none" xmlns="http://www.w3.org/2000/svg">
<path d="M23.4202 8.21042H25.6439C26.6656 8.21042 27.4469 7.42856 27.4469 6.40613V4.18086C27.4469 2.19614 25.8242 0.572281 23.8409 0.572281H21.6172C20.5955 0.572281 19.8142 1.35414 19.8142 2.37657V4.60184C19.8142 6.58656 21.4369 8.21042 23.4202 8.21042Z" fill="#272727"/>
<path d="M26.1247 10.0749H21.4369C19.5738 10.0749 18.0713 8.57128 18.0713 6.70685V2.01572C18.0713 1.23386 17.5304 0.692566 16.7491 0.692566H6.05129C3.10639 0.692566 0.702393 3.09829 0.702393 6.04529V24.8099C0.702393 27.7569 3.10639 30.1626 6.05129 30.1626H22.098C25.0429 30.1626 27.4469 27.7569 27.4469 24.8099V11.398C27.4469 10.6161 26.906 10.0749 26.1247 10.0749ZM16.7491 22.1636H8.75579C7.97449 22.1636 7.4336 21.6223 7.4336 20.8404C7.4336 20.0586 7.97449 19.5173 8.75579 19.5173H16.7491C17.5304 19.5173 18.0713 20.0586 18.0713 20.8404C18.0713 21.6223 17.5304 22.1636 16.7491 22.1636ZM19.4536 16.8109H8.75579C7.97449 16.8109 7.4336 16.2696 7.4336 15.4877C7.4336 14.7059 7.97449 14.1646 8.75579 14.1646H19.4536C20.2349 14.1646 20.7758 14.7059 20.7758 15.4877C20.7758 16.2696 20.2349 16.8109 19.4536 16.8109Z" fill="#B41D24"/>
<path d="M18.0713 20.7803C18.0713 21.5621 17.5304 22.1034 16.7491 22.1034H8.75578C7.97448 22.1034 7.43359 21.5621 7.43359 20.7803C7.43359 19.9984 7.97448 19.4571 8.75578 19.4571H16.7491C17.5304 19.4571 18.0713 19.9984 18.0713 20.7803Z" fill="white"/>
<path d="M20.7758 15.4276C20.7758 16.2094 20.2349 16.7507 19.4536 16.7507H8.75578C7.97448 16.7507 7.43359 16.2094 7.43359 15.4276C7.43359 14.6457 7.97448 14.1044 8.75578 14.1044H19.4536C20.2349 14.1044 20.7758 14.6457 20.7758 15.4276Z" fill="white"/>
<path d="M23.4202 8.33072H25.6439C26.6656 8.33072 27.4469 7.54886 27.4469 6.52643V4.30114C27.4469 2.31642 25.8242 0.692566 23.8409 0.692566H21.6172C20.5955 0.692566 19.8142 1.47442 19.8142 2.49685V4.72215C19.8142 6.767 21.4369 8.33072 23.4202 8.33072Z" fill="black"/>
</svg>
