<svg width="28" height="14" viewBox="0 0 28 14" fill="none" xmlns="http://www.w3.org/2000/svg">
<path d="M16.7775 0.26631C16.9042 0.26631 17.0325 0.299826 17.1488 0.370367L27.0915 6.38604C27.3068 6.51624 27.4382 6.74945 27.4382 7.00091C27.4382 7.25236 27.3068 7.48557 27.0915 7.61577L17.1488 13.6314C16.8095 13.8371 16.3674 13.7281 16.162 13.3886C15.9563 13.049 16.0651 12.6072 16.4048 12.4017L25.3311 7.00091L16.4048 1.6001C16.0651 1.39462 15.9563 0.952772 16.162 0.613226C16.2969 0.389845 16.5343 0.26631 16.7775 0.26631Z" fill="#B41D24"/>
<path d="M7.75049 6.29301C7.93737 6.29301 8.12425 6.36847 8.25709 6.50499C8.3901 6.638 8.46924 6.82488 8.46924 7.01177C8.46924 7.20216 8.3901 7.38553 8.25709 7.52205C7.98756 7.7879 7.50605 7.7879 7.24003 7.52205C7.10719 7.38553 7.03174 7.20216 7.03174 7.01177C7.03174 6.8212 7.10719 6.638 7.24003 6.50499C7.37304 6.36847 7.55992 6.29301 7.75049 6.29301Z" fill="#B41D24"/>
<path d="M5.59424 6.29302C5.78112 6.29302 5.968 6.36848 6.10084 6.505C6.23385 6.63801 6.31299 6.82121 6.31299 7.01177C6.31299 7.20216 6.23385 7.38554 6.10084 7.51837C5.83499 7.7879 5.35331 7.7879 5.08378 7.51837C4.95094 7.38554 4.87549 7.20216 4.87549 7.01177C4.87549 6.82121 4.95094 6.63801 5.08378 6.505C5.21679 6.36848 5.40367 6.29302 5.59424 6.29302Z" fill="#B41D24"/>
<path d="M3.43799 6.29301C3.62487 6.29301 3.81175 6.37198 3.94459 6.50499C4.0776 6.638 4.15674 6.8212 4.15674 7.01177C4.15674 7.20216 4.0776 7.38553 3.94459 7.52205C3.67874 7.7879 3.19706 7.7879 2.92753 7.52205C2.7947 7.38553 2.71924 7.20216 2.71924 7.01177C2.71924 6.8212 2.7947 6.638 2.92753 6.50499C3.06423 6.37198 3.24742 6.29301 3.43799 6.29301Z" fill="#B41D24"/>
<path d="M1.28174 6.29301C1.46862 6.29301 1.6555 6.36847 1.78834 6.50499C1.92135 6.638 2.00049 6.8212 2.00049 7.01177C2.00049 7.20216 1.92135 7.38553 1.78834 7.52205C1.51881 7.7879 1.04081 7.7879 0.771278 7.52205C0.638443 7.38553 0.562988 7.20216 0.562988 7.01177C0.562988 6.8212 0.638443 6.638 0.771278 6.50499C0.907974 6.36847 1.09117 6.29301 1.28174 6.29301Z" fill="#B41D24"/>
<path d="M10.0469 6.28217L25.5 6.28216C25.8969 6.28216 26.2187 6.60399 26.2187 7.00091C26.2187 7.39784 25.8969 7.71967 25.5 7.71967L10.0469 7.71967C9.64995 7.71967 9.32812 7.39784 9.32812 7.00092C9.32812 6.60399 9.64995 6.28217 10.0469 6.28217Z" fill="#B41D24"/>
</svg>
